<?xml version="1.0" encoding="UTF-8"?>
<svg height="16px" viewBox="0 0 16 16" width="16px" xmlns="http://www.w3.org/2000/svg">
    <path d="m 7.390625 0.03125 c -0.089844 -0.015625 -0.183594 -0.02734375 -0.277344 -0.03125 c -0.558593 -0.015625 -1.101562 0.210938 -1.480469 0.621094 l -4.800781 4.515625 c -0.542969 0.585937 -0.214843 1.535156 0.570313 1.671875 l 2.65625 0.464844 c 0.730468 0.128906 0.234375 1.15625 -0.15625 1.433593 l -0.4375 0.429688 c -0.160156 0.160156 -0.125 0.433593 0.078125 0.539062 l 0.28125 0.152344 c 0.164062 0.089844 0.195312 0.308594 0.0625 0.441406 l -0.558594 0.554688 c -0.078125 0.074219 -0.070313 0.203125 0.011719 0.273437 l 0.710937 0.804688 c 0.085938 0.070312 0.449219 0.464844 0.058594 0.929687 l -0.445313 0.332031 c -0.085937 0.101563 -0.144531 0.222657 -0.167968 0.355469 l -0.09375 0.585938 c 0.03125 0.375 0.023437 0.703125 0.238281 0.984375 l 0.546875 0.722656 c 0.167969 0.222656 0.488281 0.25 0.695312 0.0625 l 1.535157 -1.410156 c 0.308593 -0.28125 0.515625 -0.660156 0.589843 -1.070313 l 0.652344 -3.691406 c 0.050782 -0.28125 0.167969 -1.773437 0.746094 -1.671875 l 2.3125 0.40625 c 0.785156 0.136719 1.414062 -0.648438 1.101562 -1.386719 l -2.984374 -5.871093 c -0.257813 -0.609376 -0.804688 -1.035157 -1.445313 -1.148438 z m -0.476563 2.691406 c 0.582032 0.101563 0.96875 0.65625 0.867188 1.234375 c -0.101562 0.582031 -0.652344 0.96875 -1.234375 0.867188 c -0.578125 -0.101563 -0.96875 -0.652344 -0.867187 -1.234375 c 0.101562 -0.578125 0.65625 -0.96875 1.234374 -0.867188 z m 0 0"/>
    <path d="m 9.996094 1.75 l 0.746094 1.464844 l 1.902343 3.832031 c 0.410157 0.957031 -0.683593 2.308594 -1.722656 2.128906 l -2.070313 -0.363281 c -0.085937 -0.015625 -0.171874 0.003906 -0.246093 0.054688 c -0.070313 0.050781 -0.117188 0.125 -0.128907 0.210937 l -0.199218 1.171875 c -0.050782 0.304688 0.117187 0.695312 0.394531 0.824219 c 1.417969 0.667969 3.261719 0.507812 4.734375 -0.34375 c 2.21875 -1.28125 2.992188 -5.140625 1.046875 -7.085938 c -1.492187 -1.492187 -3.351563 -2.230469 -4.234375 -2.296875 c -0.265625 -0.019531 -0.359375 0.125 -0.222656 0.402344 z m 0 0"/>
</svg>
