<?xml version="1.0" encoding="UTF-8"?>
<svg height="128px" viewBox="0 0 128 128" width="128px" xmlns="http://www.w3.org/2000/svg" xmlns:xlink="http://www.w3.org/1999/xlink">
    <filter id="a" height="100%" width="100%" x="0%" y="0%">
        <feColorMatrix color-interpolation-filters="sRGB" values="0 0 0 0 1 0 0 0 0 1 0 0 0 0 1 0 0 0 1 0"/>
    </filter>
    <linearGradient id="b" gradientUnits="userSpaceOnUse" x1="67.010219" x2="116.947635" y1="49.042423" y2="49.042423">
        <stop offset="0" stop-color="#ffbe6f"/>
        <stop offset="0.130051" stop-color="#e5a50a"/>
        <stop offset="0.182071" stop-color="#c64600"/>
        <stop offset="0.714422" stop-color="#c64600"/>
        <stop offset="0.818384" stop-color="#e5a50a"/>
        <stop offset="1" stop-color="#ffbe6f"/>
    </linearGradient>
    <linearGradient id="c" gradientUnits="userSpaceOnUse" x1="91.977695" x2="91.977695" y1="19.674156" y2="96.056598">
        <stop offset="0" stop-color="#f3921a"/>
        <stop offset="1" stop-color="#f6d32d"/>
    </linearGradient>
    <linearGradient id="d" gradientUnits="userSpaceOnUse" x1="19.72379" x2="90.51601" y1="70.701946" y2="70.701946">
        <stop offset="0" stop-color="#deddda"/>
        <stop offset="0.0387181" stop-color="#9a9996"/>
        <stop offset="0.252971" stop-color="#5e5c64"/>
        <stop offset="0.308595" stop-color="#3d3846"/>
        <stop offset="0.45837" stop-color="#77767b"/>
        <stop offset="0.606692" stop-color="#77767b"/>
        <stop offset="0.686285" stop-color="#3d3846"/>
        <stop offset="0.757016" stop-color="#5e5c64"/>
        <stop offset="0.949653" stop-color="#77767b"/>
        <stop offset="1" stop-color="#deddda"/>
    </linearGradient>
    <linearGradient id="e" gradientUnits="userSpaceOnUse" x1="55.119914" x2="55.119914" y1="51.490627" y2="127.7168">
        <stop offset="0" stop-color="#f6f5f4"/>
        <stop offset="1" stop-color="#c0bfbc"/>
    </linearGradient>
    <linearGradient id="f" gradientTransform="matrix(1 0 0 0.950906 -7.771669 -12.3068)" gradientUnits="userSpaceOnUse" x1="63.5" x2="63.946262" y1="43.25" y2="97.001289">
        <stop offset="0" stop-color="#deddda"/>
        <stop offset="1" stop-color="#c0bfbc" stop-opacity="0"/>
    </linearGradient>
    <linearGradient id="g" gradientUnits="userSpaceOnUse" x1="44.194038" x2="88.953342" y1="34.502674" y2="23.962038">
        <stop offset="0" stop-color="#deddda"/>
        <stop offset="0.0311986" stop-color="#f6f5f4"/>
        <stop offset="0.382586" stop-color="#c0bfbc"/>
        <stop offset="0.573837" stop-color="#f6f5f4"/>
        <stop offset="1" stop-color="#9a9996"/>
    </linearGradient>
    <linearGradient id="h" gradientUnits="userSpaceOnUse" x1="62.70898" x2="62.70898" y1="107.46871" y2="14.985605">
        <stop offset="0" stop-color="#c0bfbc"/>
        <stop offset="1" stop-color="#f6f5f4" stop-opacity="0"/>
    </linearGradient>
    <clipPath id="i">
        <rect height="128" width="128"/>
    </clipPath>
    <clipPath id="j">
        <rect height="128" width="128"/>
    </clipPath>
    <mask id="k">
        <g filter="url(#a)">
            <g clip-path="url(#j)" filter="url(#a)">
                <g clip-path="url(#i)">
                    <path d="m 82.382812 20.773438 c -2.269531 0.046874 -4.40625 0.542968 -6.328124 1.589843 c -11.699219 6.363281 -10.777344 30.652344 -4.414063 42.355469 c 6.363281 11.699219 21.003906 16.027344 32.707031 9.664062 c 7.917969 -4.308593 12.453125 -12.40625 12.589844 -20.820312 l 0.011719 -0.398438 v -4.375 h -0.414063 c -0.453125 -2.425781 -1.28125 -4.828124 -2.523437 -7.113281 c -5.171875 -9.507812 -19.269531 -20.515625 -30.652344 -20.898437 c -0.328125 -0.011719 -0.65625 -0.011719 -0.976563 -0.007813 z m 0.449219 8.550781 c 2.472657 -0.175781 4.816407 1.109375 6 3.289062 c 1.667969 3.066407 0.53125 6.910157 -2.535156 8.578125 c -3.070313 1.667969 -6.910156 0.53125 -8.578125 -2.535156 c -1.671875 -3.070312 -0.535156 -6.910156 2.535156 -8.578125 c 0.792969 -0.433594 1.675782 -0.691406 2.578125 -0.753906 z m 0 0" fill="url(#b)"/>
                    <path d="m 83.359375 16.378906 c -2.628906 -0.089844 -5.109375 0.390625 -7.304687 1.582032 c -11.699219 6.363281 -10.777344 30.65625 -4.414063 42.355468 c 6.363281 11.703125 21.003906 16.027344 32.707031 9.664063 c 11.699219 -6.363281 16.027344 -21.003907 9.664063 -32.707031 c -5.171875 -9.507813 -19.269531 -20.515626 -30.652344 -20.894532 z m -0.527344 8.542969 c 2.472657 -0.171875 4.816407 1.113281 6 3.289063 c 1.667969 3.070312 0.53125 6.910156 -2.535156 8.578124 c -3.070313 1.671876 -6.910156 0.535157 -8.578125 -2.535156 c -1.671875 -3.066406 -0.535156 -6.910156 2.535156 -8.578125 c 0.792969 -0.433593 1.675782 -0.691406 2.578125 -0.753906 z m 0 0" fill="url(#c)"/>
                    <path d="m 83.285156 29.304688 c -0.152344 0 -0.300781 0.003906 -0.453125 0.015624 c -0.90625 0.066407 -1.785156 0.324219 -2.582031 0.753907 c -0.460938 0.257812 -0.886719 0.570312 -1.273438 0.929687 c -0.421874 0.890625 -0.9375 1.738282 -1.539062 2.523438 c -1.363281 1.773437 -3.148438 3.253906 -5.304688 4.246094 c -1.652343 0.765624 -2.375 2.726562 -1.613281 4.378906 c 0.765625 1.65625 2.726563 2.378906 4.382813 1.613281 c 3.160156 -1.457031 5.804687 -3.640625 7.800781 -6.273437 c 1.675781 -2.207032 2.898437 -4.730469 3.589844 -7.414063 c -0.925781 -0.503906 -1.960938 -0.769531 -3.007813 -0.773437 z m 0 0" fill="#b0afad"/>
                    <path d="m 96.546875 43.226562 c 1.472656 2.9375 0.285156 6.515626 -2.652344 7.988282 c -2.941406 1.476562 -6.515625 0.289062 -7.992187 -2.648438 c -1.472656 -2.941406 -0.285156 -6.515625 2.652344 -7.992187 c 2.941406 -1.472657 6.515624 -0.285157 7.992187 2.652343 z m 0 0" fill="#f6f5f4"/>
                    <path d="m 98.425781 80.8125 c -0.816406 -4.09375 1.320313 -8.203125 5.140625 -9.886719 l 0.484375 -0.242187 c 3.984375 -2.023438 8.847657 -0.898438 11.539063 2.667968" fill="none" stroke="#f6f5f4" stroke-linecap="round" stroke-linejoin="round" stroke-width="3.3495" transform="matrix(1 0 0 1 -8 -16)"/>
                    <path d="m 78.886719 35.746094 c -0.464844 -0.433594 -1.195313 -1.734375 -1.507813 -2.289063 c -1.269531 1.433594 -3.945312 3.308594 -6.601562 4.25 c -0.796875 0.285157 -1.210938 1.160157 -0.929688 1.957031 c 0.28125 0.796876 1.15625 1.214844 1.953125 0.929688 c 2.824219 -1 5.234375 -2.699219 7.085938 -4.847656 z m 0 0" fill="#9a9996"/>
                    <path d="m 55.152344 18.519531 c -0.570313 0 -1.144532 0.039063 -1.722656 0.121094 c -3.421876 0.488281 -6.457032 2.433594 -8.324219 5.328125 l -24.382813 37.769531 c -2.664062 4.128907 0.3125 9.554688 5.234375 9.554688 h 16.628907 c 0.257812 0 0.496093 0.144531 0.617187 0.375 c 0.117187 0.230469 0.097656 0.507812 -0.050781 0.71875 l -1.613282 2.265625 v -0.097656 h -0.964843 v 2.199218 h 0.011719 c 0.03125 0.832032 0.550781 1.621094 1.421874 1.910156 l 1.859376 0.621094 c 1.089843 0.363282 1.519531 1.675782 0.855468 2.613282 l -2.050781 2.890624 v -0.378906 h -0.964844 v 2.199219 h 0.019531 c 0.03125 0.355469 0.214844 0.695313 0.554688 0.882813 l 5.167969 2.867187 c 0.601562 0.335937 0.808593 1.097656 0.457031 1.691406 l -1.46875 2.472657 c -0.421875 0.707031 -0.640625 1.515624 -0.640625 2.335937 l 0.046875 15.699219 c 0.003906 2.175781 0.914062 4.253906 2.507812 5.734375 l 4.09375 3.8125 c 1.25 1.164062 3.230469 1 4.273438 -0.351563 l 7.839844 -10.195312 c 1.578125 -2.050782 2.433594 -4.566406 2.441406 -7.15625 l 0.046875 -29.941406 c 0.003906 -1.75 1.417969 -3.164063 3.167969 -3.167969 h 14.054687 c 4.933594 0 7.914063 -5.4375 5.246094 -9.574219 l -24.367187 -37.75 c -2.210938 -3.417969 -5.992188 -5.441406 -9.996094 -5.449219 z m -0.4375 16.21875 c 3.492187 0 6.324218 2.832031 6.324218 6.324219 c 0 3.496094 -2.832031 6.328125 -6.324218 6.328125 c -3.496094 0 -6.324219 -2.832031 -6.324219 -6.328125 c 0 -3.492188 2.828125 -6.324219 6.324219 -6.324219 z m 0 0" fill="url(#d)"/>
                    <path d="m 55.152344 16.320312 c -0.570313 0 -1.144532 0.039063 -1.722656 0.121094 c -3.421876 0.488282 -6.457032 2.433594 -8.324219 5.328125 l -24.382813 37.769531 c -2.664062 4.125 0.3125 9.554688 5.234375 9.554688 h 16.628907 c 0.257812 0 0.496093 0.144531 0.617187 0.375 c 0.117187 0.230469 0.097656 0.507812 -0.050781 0.71875 l -2.191406 3.078125 c -0.816407 1.144531 -0.289063 2.757813 1.046874 3.199219 l 1.859376 0.621094 c 1.089843 0.359374 1.519531 1.675781 0.855468 2.609374 l -2.8125 3.964844 c -0.390625 0.546875 -0.214844 1.308594 0.371094 1.632813 l 5.167969 2.867187 c 0.601562 0.332032 0.808593 1.097656 0.457031 1.691406 l -1.46875 2.472657 c -0.421875 0.707031 -0.640625 1.515625 -0.640625 2.335937 l 0.046875 15.699219 c 0.003906 2.175781 0.914062 4.253906 2.507812 5.734375 l 4.09375 3.8125 c 1.25 1.164062 3.230469 1 4.273438 -0.351562 l 7.839844 -10.195313 c 1.578125 -2.050781 2.433594 -4.566406 2.441406 -7.15625 l 0.046875 -29.945313 c 0.003906 -1.746093 1.417969 -3.164062 3.167969 -3.164062 h 14.054687 c 4.933594 0 7.914063 -5.4375 5.246094 -9.574219 l -24.367187 -37.75 c -2.210938 -3.421875 -5.992188 -5.441406 -9.996094 -5.449219 z m -0.4375 16.21875 c 3.492187 0 6.292968 2.683594 6.292968 5.691407 c 0 3.492187 -2.472656 6.957031 -6.292968 6.957031 c -3.496094 0 -6.324219 -2.832031 -6.324219 -6.324219 c 0 -3.492187 2.828125 -6.324219 6.324219 -6.324219 z m 0 0" fill="url(#e)"/>
                    <path d="m 62.707031 135.222656 v -48.300781" fill="none" stroke="#9a9996" stroke-linecap="round" stroke-linejoin="round" stroke-width="2.65" transform="matrix(1 0 0 1 -8 -16)"/>
                    <path d="m 59.976562 69.546875 h 0.808594 c 1.363282 0 2.46875 1.308594 2.46875 2.925781 l -0.003906 36.511719 c 0 1.335937 -0.421875 2.625 -1.183594 3.617187 l -2.664062 3.460938 c -0.1875 0.246094 -0.484375 0.328125 -0.746094 0.207031 c -0.261719 -0.121093 -0.433594 -0.417969 -0.433594 -0.75 v -43.890625 c 0 -1.148437 0.785156 -2.082031 1.753906 -2.082031 z m 0 0" fill="#9a9996"/>
                    <path d="m 59.976562 71.546875 h 0.808594 c 1.363282 0 2.46875 1.308594 2.46875 2.925781 l -0.003906 34.523438 c 0 1.335937 -0.425781 2.625 -1.183594 3.613281 l -2.664062 3.453125 c -0.1875 0.246094 -0.484375 0.328125 -0.746094 0.207031 c -0.261719 -0.117187 -0.433594 -0.417969 -0.433594 -0.75 v -41.890625 c 0 -1.148437 0.785156 -2.082031 1.753906 -2.082031 z m 0 0" fill="#c0bfbc"/>
                    <path d="m 54.742188 25.972656 c -0.441407 0 -0.886719 0.03125 -1.332032 0.089844 c -2.636718 0.359375 -4.984375 1.789062 -6.425781 3.914062 l -18.824219 27.726563 c -2.054687 3.027344 0.242188 7.015625 4.042969 7.015625 h 45.015625 c 3.8125 0 6.113281 -3.992188 4.050781 -7.03125 l -18.8125 -27.710938 c -1.703125 -2.511718 -4.621093 -3.996093 -7.714843 -4.003906 z m -0.027344 6.566406 c 3.492187 0 6.292968 2.964844 6.292968 5.691407 c 0 3.320312 -2.417968 6.957031 -6.292968 6.957031 c -3.492188 0 -6.324219 -3.007812 -6.324219 -6.109375 c 0 -3.324219 2.832031 -6.539063 6.324219 -6.539063 z m 0 0" fill="url(#f)"/>
                    <path d="m 54.742188 23.976562 c -0.441407 -0.003906 -0.886719 0.027344 -1.332032 0.089844 c -2.636718 0.378906 -4.984375 1.878906 -6.425781 4.113282 l -18.824219 29.160156 c -0.738281 1.148437 -0.90625 2.421875 -0.652344 3.589844 c 0.117188 -0.542969 0.324219 -1.078126 0.652344 -1.589844 l 18.824219 -29.160156 c 1.441406 -2.234376 3.789063 -3.734376 6.425781 -4.113282 c 0.445313 -0.0625 0.890625 -0.09375 1.332032 -0.089844 c 3.09375 0.003907 6.011718 1.5625 7.714843 4.203126 l 18.8125 29.144531 c 0.332031 0.511719 0.539063 1.054687 0.65625 1.597656 c 0.257813 -1.167969 0.085938 -2.449219 -0.65625 -3.597656 l -18.8125 -29.144531 c -1.703125 -2.640626 -4.621093 -4.199219 -7.714843 -4.203126 z m 0 0" fill="#c0bfbc"/>
                    <path d="m 65.992188 4.15625 c -0.308594 0.003906 -0.617188 0.015625 -0.929688 0.03125 c -9.925781 0.542969 -18.105469 8.09375 -19.441406 17.945312 c -0.410156 3.027344 -0.132813 6.019532 0.710937 8.800782 c 0.601563 1.976562 1.496094 3.847656 2.636719 5.550781 c 2.054688 3.058594 5.699219 5.957031 9.152344 7.585937 c 1.917968 -1.089843 3.1875 -3.398437 2.886718 -5.839843 c -0.007812 -0.050781 -0.140624 -0.972657 0 0 c -2.746093 -0.585938 -5.171874 -3.226563 -6.738281 -5.667969 c -1.183593 -1.847656 -1.933593 -3.972656 -2.15625 -6.21875 c -0.109375 -1.089844 -0.105469 -2.199219 0.046875 -3.328125 c 0.917969 -6.75 6.457032 -11.863281 13.261719 -12.238281 c 5.160156 -0.28125 9.886719 2.230468 12.589844 6.335937 c 1.675781 -0.566406 3.472656 -0.796875 5.347656 -0.734375 c 0.601563 0.019532 1.210937 0.074219 1.824219 0.152344 c -3.3125 -7.496094 -10.839844 -12.457031 -19.191406 -12.375 z m 0 0" fill="url(#g)"/>
                    <path d="m 82.351562 29.375 c -0.835937 0.09375 -1.449218 0.394531 -2.101562 0.699219 c -0.714844 0.335937 -1.273438 0.929687 -1.273438 0.929687 s -1.128906 1.894532 -1.597656 2.453125 c 0.09375 0.273438 0.164063 1.347657 0.292969 1.601563 c 0.3125 0.554687 0.75 0.253906 1.214844 0.6875 c 1.582031 -1.832032 2.792969 -4.035156 3.464843 -6.371094 z m 0 0" fill="#9a9996"/>
                    <path d="m 66.328125 8 c -8.132813 -0.066406 -15.160156 5.738281 -16.636719 13.738281 c -0.355468 1.929688 -0.359375 3.851563 -0.0625 5.699219 c 0.339844 2.101562 1.074219 4.105469 2.144532 5.910156 c 1.902343 3.203125 4.863281 5.78125 8.5625 7.15625 c 0.0625 0.015625 0.28125 0.082032 0.464843 0.082032 c 0.285157 -0.648438 0.207031 -1.539063 0.207031 -2.355469 c 0 -0.261719 -0.035156 -0.523438 -0.085937 -0.789063 c -2.511719 -1.042968 -4.578125 -2.769531 -6.039063 -4.894531 c -1.277343 -1.863281 -2.085937 -4.03125 -2.328124 -6.320313 c -0.136719 -1.285156 -0.09375 -2.605468 0.152343 -3.933593 c 1.207031 -6.558594 6.929688 -11.28125 13.597657 -11.230469 c 4.703124 0.039062 8.898437 2.449219 11.347656 6.175781 c 1 -0.371093 2.046875 -0.617187 3.128906 -0.75 c -2.890625 -5.078125 -8.332031 -8.441406 -14.453125 -8.488281 z m 0 0" fill="#9a9996"/>
                    <path d="m 62.707031 135.222656 v -46.199218" fill="none" stroke="url(#h)" stroke-linecap="round" stroke-linejoin="round" stroke-width="2.65" transform="matrix(1 0 0 1 -8 -16)"/>
                </g>
            </g>
        </g>
    </mask>
    <mask id="l">
        <g filter="url(#a)">
            <rect fill-opacity="0.8" height="184.32" width="184.32" x="-28.16" y="-28.16"/>
        </g>
    </mask>
    <linearGradient id="m" gradientTransform="matrix(0 0.37 -0.98462 0 295.38501 -30.360001)" gradientUnits="userSpaceOnUse" x1="300" x2="428" y1="235" y2="235">
        <stop offset="0" stop-color="#f9f06b"/>
        <stop offset="1" stop-color="#f5c211"/>
    </linearGradient>
    <clipPath id="n">
        <rect height="128" width="128"/>
    </clipPath>
    <clipPath id="o">
        <rect height="128" width="128"/>
    </clipPath>
    <path d="m 82.382812 20.773438 c -2.269531 0.046874 -4.40625 0.542968 -6.328124 1.589843 c -11.699219 6.363281 -10.777344 30.652344 -4.414063 42.355469 c 6.363281 11.699219 21.003906 16.027344 32.707031 9.664062 c 7.917969 -4.308593 12.453125 -12.40625 12.589844 -20.820312 l 0.011719 -0.398438 v -4.375 h -0.414063 c -0.453125 -2.425781 -1.28125 -4.828124 -2.523437 -7.113281 c -5.171875 -9.507812 -19.269531 -20.515625 -30.652344 -20.898437 c -0.328125 -0.011719 -0.65625 -0.011719 -0.976563 -0.007813 z m 0.449219 8.550781 c 2.472657 -0.175781 4.816407 1.109375 6 3.289062 c 1.667969 3.066407 0.53125 6.910157 -2.535156 8.578125 c -3.070313 1.667969 -6.910156 0.53125 -8.578125 -2.535156 c -1.671875 -3.070312 -0.535156 -6.910156 2.535156 -8.578125 c 0.792969 -0.433594 1.675782 -0.691406 2.578125 -0.753906 z m 0 0" fill="url(#b)"/>
    <path d="m 83.359375 16.378906 c -2.628906 -0.089844 -5.109375 0.390625 -7.304687 1.582032 c -11.699219 6.363281 -10.777344 30.65625 -4.414063 42.355468 c 6.363281 11.703125 21.003906 16.027344 32.707031 9.664063 c 11.699219 -6.363281 16.027344 -21.003907 9.664063 -32.707031 c -5.171875 -9.507813 -19.269531 -20.515626 -30.652344 -20.894532 z m -0.527344 8.542969 c 2.472657 -0.171875 4.816407 1.113281 6 3.289063 c 1.667969 3.070312 0.53125 6.910156 -2.535156 8.578124 c -3.070313 1.671876 -6.910156 0.535157 -8.578125 -2.535156 c -1.671875 -3.066406 -0.535156 -6.910156 2.535156 -8.578125 c 0.792969 -0.433593 1.675782 -0.691406 2.578125 -0.753906 z m 0 0" fill="url(#c)"/>
    <path d="m 83.285156 29.304688 c -0.152344 0 -0.300781 0.003906 -0.453125 0.015624 c -0.90625 0.066407 -1.785156 0.324219 -2.582031 0.753907 c -0.460938 0.257812 -0.886719 0.570312 -1.273438 0.929687 c -0.421874 0.890625 -0.9375 1.738282 -1.539062 2.523438 c -1.363281 1.773437 -3.148438 3.253906 -5.304688 4.246094 c -1.652343 0.765624 -2.375 2.726562 -1.613281 4.378906 c 0.765625 1.65625 2.726563 2.378906 4.382813 1.613281 c 3.160156 -1.457031 5.804687 -3.640625 7.800781 -6.273437 c 1.675781 -2.207032 2.898437 -4.730469 3.589844 -7.414063 c -0.925781 -0.503906 -1.960938 -0.769531 -3.007813 -0.773437 z m 0 0" fill="#b0afad"/>
    <path d="m 96.546875 43.226562 c 1.472656 2.9375 0.285156 6.515626 -2.652344 7.988282 c -2.941406 1.476562 -6.515625 0.289062 -7.992187 -2.648438 c -1.472656 -2.941406 -0.285156 -6.515625 2.652344 -7.992187 c 2.941406 -1.472657 6.515624 -0.285157 7.992187 2.652343 z m 0 0" fill="#f6f5f4"/>
    <path d="m 90.425781 64.8125 c -0.816406 -4.09375 1.320313 -8.203125 5.140625 -9.886719 l 0.484375 -0.242187 c 3.984375 -2.023438 8.847657 -0.898438 11.539063 2.667968" fill="none" stroke="#f6f5f4" stroke-linecap="round" stroke-linejoin="round" stroke-width="3.3495"/>
    <path d="m 78.886719 35.746094 c -0.464844 -0.433594 -1.195313 -1.734375 -1.507813 -2.289063 c -1.269531 1.433594 -3.945312 3.308594 -6.601562 4.25 c -0.796875 0.285157 -1.210938 1.160157 -0.929688 1.957031 c 0.28125 0.796876 1.15625 1.214844 1.953125 0.929688 c 2.824219 -1 5.234375 -2.699219 7.085938 -4.847656 z m 0 0" fill="#9a9996"/>
    <path d="m 55.152344 18.519531 c -0.570313 0 -1.144532 0.039063 -1.722656 0.121094 c -3.421876 0.488281 -6.457032 2.433594 -8.324219 5.328125 l -24.382813 37.769531 c -2.664062 4.128907 0.3125 9.554688 5.234375 9.554688 h 16.628907 c 0.257812 0 0.496093 0.144531 0.617187 0.375 c 0.117187 0.230469 0.097656 0.507812 -0.050781 0.71875 l -1.613282 2.265625 v -0.097656 h -0.964843 v 2.199218 h 0.011719 c 0.03125 0.832032 0.550781 1.621094 1.421874 1.910156 l 1.859376 0.621094 c 1.089843 0.363282 1.519531 1.675782 0.855468 2.613282 l -2.050781 2.890624 v -0.378906 h -0.964844 v 2.199219 h 0.019531 c 0.03125 0.355469 0.214844 0.695313 0.554688 0.882813 l 5.167969 2.867187 c 0.601562 0.335937 0.808593 1.097656 0.457031 1.691406 l -1.46875 2.472657 c -0.421875 0.707031 -0.640625 1.515624 -0.640625 2.335937 l 0.046875 15.699219 c 0.003906 2.175781 0.914062 4.253906 2.507812 5.734375 l 4.09375 3.8125 c 1.25 1.164062 3.230469 1 4.273438 -0.351563 l 7.839844 -10.195312 c 1.578125 -2.050782 2.433594 -4.566406 2.441406 -7.15625 l 0.046875 -29.941406 c 0.003906 -1.75 1.417969 -3.164063 3.167969 -3.167969 h 14.054687 c 4.933594 0 7.914063 -5.4375 5.246094 -9.574219 l -24.367187 -37.75 c -2.210938 -3.417969 -5.992188 -5.441406 -9.996094 -5.449219 z m -0.4375 16.21875 c 3.492187 0 6.324218 2.832031 6.324218 6.324219 c 0 3.496094 -2.832031 6.328125 -6.324218 6.328125 c -3.496094 0 -6.324219 -2.832031 -6.324219 -6.328125 c 0 -3.492188 2.828125 -6.324219 6.324219 -6.324219 z m 0 0" fill="url(#d)"/>
    <path d="m 55.152344 16.320312 c -0.570313 0 -1.144532 0.039063 -1.722656 0.121094 c -3.421876 0.488282 -6.457032 2.433594 -8.324219 5.328125 l -24.382813 37.769531 c -2.664062 4.125 0.3125 9.554688 5.234375 9.554688 h 16.628907 c 0.257812 0 0.496093 0.144531 0.617187 0.375 c 0.117187 0.230469 0.097656 0.507812 -0.050781 0.71875 l -2.191406 3.078125 c -0.816407 1.144531 -0.289063 2.757813 1.046874 3.199219 l 1.859376 0.621094 c 1.089843 0.359374 1.519531 1.675781 0.855468 2.609374 l -2.8125 3.964844 c -0.390625 0.546875 -0.214844 1.308594 0.371094 1.632813 l 5.167969 2.867187 c 0.601562 0.332032 0.808593 1.097656 0.457031 1.691406 l -1.46875 2.472657 c -0.421875 0.707031 -0.640625 1.515625 -0.640625 2.335937 l 0.046875 15.699219 c 0.003906 2.175781 0.914062 4.253906 2.507812 5.734375 l 4.09375 3.8125 c 1.25 1.164062 3.230469 1 4.273438 -0.351562 l 7.839844 -10.195313 c 1.578125 -2.050781 2.433594 -4.566406 2.441406 -7.15625 l 0.046875 -29.945313 c 0.003906 -1.746093 1.417969 -3.164062 3.167969 -3.164062 h 14.054687 c 4.933594 0 7.914063 -5.4375 5.246094 -9.574219 l -24.367187 -37.75 c -2.210938 -3.421875 -5.992188 -5.441406 -9.996094 -5.449219 z m -0.4375 16.21875 c 3.492187 0 6.292968 2.683594 6.292968 5.691407 c 0 3.492187 -2.472656 6.957031 -6.292968 6.957031 c -3.496094 0 -6.324219 -2.832031 -6.324219 -6.324219 c 0 -3.492187 2.828125 -6.324219 6.324219 -6.324219 z m 0 0" fill="url(#e)"/>
    <path d="m 54.707031 119.222656 v -48.300781" fill="none" stroke="#9a9996" stroke-linecap="round" stroke-linejoin="round" stroke-width="2.65"/>
    <path d="m 59.976562 69.546875 h 0.808594 c 1.363282 0 2.46875 1.308594 2.46875 2.925781 l -0.003906 36.511719 c 0 1.335937 -0.421875 2.625 -1.183594 3.617187 l -2.664062 3.460938 c -0.1875 0.246094 -0.484375 0.328125 -0.746094 0.207031 c -0.261719 -0.121093 -0.433594 -0.417969 -0.433594 -0.75 v -43.890625 c 0 -1.148437 0.785156 -2.082031 1.753906 -2.082031 z m 0 0" fill="#9a9996"/>
    <path d="m 59.976562 71.546875 h 0.808594 c 1.363282 0 2.46875 1.308594 2.46875 2.925781 l -0.003906 34.523438 c 0 1.335937 -0.425781 2.625 -1.183594 3.613281 l -2.664062 3.453125 c -0.1875 0.246094 -0.484375 0.328125 -0.746094 0.207031 c -0.261719 -0.117187 -0.433594 -0.417969 -0.433594 -0.75 v -41.890625 c 0 -1.148437 0.785156 -2.082031 1.753906 -2.082031 z m 0 0" fill="#c0bfbc"/>
    <path d="m 54.742188 25.972656 c -0.441407 0 -0.886719 0.03125 -1.332032 0.089844 c -2.636718 0.359375 -4.984375 1.789062 -6.425781 3.914062 l -18.824219 27.726563 c -2.054687 3.027344 0.242188 7.015625 4.042969 7.015625 h 45.015625 c 3.8125 0 6.113281 -3.992188 4.050781 -7.03125 l -18.8125 -27.710938 c -1.703125 -2.511718 -4.621093 -3.996093 -7.714843 -4.003906 z m -0.027344 6.566406 c 3.492187 0 6.292968 2.964844 6.292968 5.691407 c 0 3.320312 -2.417968 6.957031 -6.292968 6.957031 c -3.492188 0 -6.324219 -3.007812 -6.324219 -6.109375 c 0 -3.324219 2.832031 -6.539063 6.324219 -6.539063 z m 0 0" fill="url(#f)"/>
    <path d="m 54.742188 23.976562 c -0.441407 -0.003906 -0.886719 0.027344 -1.332032 0.089844 c -2.636718 0.378906 -4.984375 1.878906 -6.425781 4.113282 l -18.824219 29.160156 c -0.738281 1.148437 -0.90625 2.421875 -0.652344 3.589844 c 0.117188 -0.542969 0.324219 -1.078126 0.652344 -1.589844 l 18.824219 -29.160156 c 1.441406 -2.234376 3.789063 -3.734376 6.425781 -4.113282 c 0.445313 -0.0625 0.890625 -0.09375 1.332032 -0.089844 c 3.09375 0.003907 6.011718 1.5625 7.714843 4.203126 l 18.8125 29.144531 c 0.332031 0.511719 0.539063 1.054687 0.65625 1.597656 c 0.257813 -1.167969 0.085938 -2.449219 -0.65625 -3.597656 l -18.8125 -29.144531 c -1.703125 -2.640626 -4.621093 -4.199219 -7.714843 -4.203126 z m 0 0" fill="#c0bfbc"/>
    <path d="m 65.992188 4.15625 c -0.308594 0.003906 -0.617188 0.015625 -0.929688 0.03125 c -9.925781 0.542969 -18.105469 8.09375 -19.441406 17.945312 c -0.410156 3.027344 -0.132813 6.019532 0.710937 8.800782 c 0.601563 1.976562 1.496094 3.847656 2.636719 5.550781 c 2.054688 3.058594 5.699219 5.957031 9.152344 7.585937 c 1.917968 -1.089843 3.1875 -3.398437 2.886718 -5.839843 c -0.007812 -0.050781 -0.140624 -0.972657 0 0 c -2.746093 -0.585938 -5.171874 -3.226563 -6.738281 -5.667969 c -1.183593 -1.847656 -1.933593 -3.972656 -2.15625 -6.21875 c -0.109375 -1.089844 -0.105469 -2.199219 0.046875 -3.328125 c 0.917969 -6.75 6.457032 -11.863281 13.261719 -12.238281 c 5.160156 -0.28125 9.886719 2.230468 12.589844 6.335937 c 1.675781 -0.566406 3.472656 -0.796875 5.347656 -0.734375 c 0.601563 0.019532 1.210937 0.074219 1.824219 0.152344 c -3.3125 -7.496094 -10.839844 -12.457031 -19.191406 -12.375 z m 0 0" fill="url(#g)"/>
    <path d="m 82.351562 29.375 c -0.835937 0.09375 -1.449218 0.394531 -2.101562 0.699219 c -0.714844 0.335937 -1.273438 0.929687 -1.273438 0.929687 s -1.128906 1.894532 -1.597656 2.453125 c 0.09375 0.273438 0.164063 1.347657 0.292969 1.601563 c 0.3125 0.554687 0.75 0.253906 1.214844 0.6875 c 1.582031 -1.832032 2.792969 -4.035156 3.464843 -6.371094 z m 0 0" fill="#9a9996"/>
    <path d="m 66.328125 8 c -8.132813 -0.066406 -15.160156 5.738281 -16.636719 13.738281 c -0.355468 1.929688 -0.359375 3.851563 -0.0625 5.699219 c 0.339844 2.101562 1.074219 4.105469 2.144532 5.910156 c 1.902343 3.203125 4.863281 5.78125 8.5625 7.15625 c 0.0625 0.015625 0.28125 0.082032 0.464843 0.082032 c 0.285157 -0.648438 0.207031 -1.539063 0.207031 -2.355469 c 0 -0.261719 -0.035156 -0.523438 -0.085937 -0.789063 c -2.511719 -1.042968 -4.578125 -2.769531 -6.039063 -4.894531 c -1.277343 -1.863281 -2.085937 -4.03125 -2.328124 -6.320313 c -0.136719 -1.285156 -0.09375 -2.605468 0.152343 -3.933593 c 1.207031 -6.558594 6.929688 -11.28125 13.597657 -11.230469 c 4.703124 0.039062 8.898437 2.449219 11.347656 6.175781 c 1 -0.371093 2.046875 -0.617187 3.128906 -0.75 c -2.890625 -5.078125 -8.332031 -8.441406 -14.453125 -8.488281 z m 0 0" fill="#9a9996"/>
    <path d="m 62.707031 135.222656 v -46.199218" fill="none" stroke="url(#h)" stroke-linecap="round" stroke-linejoin="round" stroke-width="2.65" transform="matrix(1 0 0 1 -8 -16)"/>
    <g mask="url(#k)">
        <g clip-path="url(#o)">
            <g mask="url(#l)">
                <g clip-path="url(#n)">
                    <path d="m 128 80.640625 v 47.359375 h -128 v -47.359375 z m 0 0" fill="url(#m)"/>
                    <path d="m 13.308594 80.640625 l 47.355468 47.359375 h 21.214844 l -47.359375 -47.359375 z m 42.421875 0 l 47.363281 47.359375 h 21.214844 l -47.363282 -47.359375 z m 42.429687 0 l 29.839844 29.839844 v -21.210938 l -8.628906 -8.628906 z m -98.160156 7.90625 v 21.214844 l 18.238281 18.238281 h 21.214844 z m 0 0"/>
                </g>
            </g>
        </g>
    </g>
</svg>
