<?xml version="1.0" encoding="UTF-8"?>
<svg height="128px" viewBox="0 0 128 128" width="128px" xmlns="http://www.w3.org/2000/svg" xmlns:xlink="http://www.w3.org/1999/xlink">
    <filter id="a" height="100%" width="100%" x="0%" y="0%">
        <feColorMatrix color-interpolation-filters="sRGB" values="0 0 0 0 1 0 0 0 0 1 0 0 0 0 1 0 0 0 1 0"/>
    </filter>
    <linearGradient id="b" gradientUnits="userSpaceOnUse" x1="62.988525" x2="121.577316" y1="73.956052" y2="73.956052">
        <stop offset="0" stop-color="#ffbe6f"/>
        <stop offset="0.130051" stop-color="#e5a50a"/>
        <stop offset="0.182071" stop-color="#c64600"/>
        <stop offset="0.714422" stop-color="#c64600"/>
        <stop offset="0.818384" stop-color="#e5a50a"/>
        <stop offset="1" stop-color="#ffbe6f"/>
    </linearGradient>
    <linearGradient id="c" gradientUnits="userSpaceOnUse" x1="91.74936657894" x2="91.74936657894" y1="19.65986955526" y2="129.2923036866">
        <stop offset="0" stop-color="#f3921a"/>
        <stop offset="1" stop-color="#f6d32d"/>
    </linearGradient>
    <linearGradient id="d" gradientUnits="userSpaceOnUse" x1="43.965706" x2="88.725014" y1="34.488381" y2="23.947743">
        <stop offset="0" stop-color="#deddda"/>
        <stop offset="0.0311986" stop-color="#f6f5f4"/>
        <stop offset="0.382586" stop-color="#c0bfbc"/>
        <stop offset="0.573837" stop-color="#f6f5f4"/>
        <stop offset="1" stop-color="#9a9996"/>
    </linearGradient>
    <linearGradient id="e" gradientUnits="userSpaceOnUse" x1="19.49546130844" x2="90.28767952133" y1="70.68765663289" y2="70.68765663289">
        <stop offset="0" stop-color="#deddda"/>
        <stop offset="0.0387181" stop-color="#9a9996"/>
        <stop offset="0.252971" stop-color="#5e5c64"/>
        <stop offset="0.308595" stop-color="#3d3846"/>
        <stop offset="0.45837" stop-color="#77767b"/>
        <stop offset="0.606692" stop-color="#77767b"/>
        <stop offset="0.686285" stop-color="#3d3846"/>
        <stop offset="0.757016" stop-color="#5e5c64"/>
        <stop offset="0.949653" stop-color="#77767b"/>
        <stop offset="1" stop-color="#deddda"/>
    </linearGradient>
    <linearGradient id="f" gradientUnits="userSpaceOnUse" x1="54.891582" x2="54.891582" y1="51.476331" y2="127.702504">
        <stop offset="0" stop-color="#f6f5f4"/>
        <stop offset="1" stop-color="#c0bfbc"/>
    </linearGradient>
    <linearGradient id="g" gradientTransform="matrix(1 0 0 0.950906 -8 -12.321088)" gradientUnits="userSpaceOnUse" x1="63.5" x2="63.946262" y1="43.25" y2="97.001289">
        <stop offset="0" stop-color="#deddda"/>
        <stop offset="1" stop-color="#c0bfbc" stop-opacity="0"/>
    </linearGradient>
    <linearGradient id="h" gradientUnits="userSpaceOnUse" x1="62.480659" x2="62.480659" y1="107.454411" y2="14.971309">
        <stop offset="0" stop-color="#c0bfbc"/>
        <stop offset="1" stop-color="#f6f5f4" stop-opacity="0"/>
    </linearGradient>
    <clipPath id="i">
        <rect height="128" width="128"/>
    </clipPath>
    <clipPath id="j">
        <rect height="128" width="128"/>
    </clipPath>
    <mask id="k">
        <g filter="url(#a)">
            <g clip-path="url(#j)" filter="url(#a)">
                <g clip-path="url(#i)">
                    <path d="m 83.128906 20.765625 c -2.625 -0.089844 -5.105468 0.386719 -7.300781 1.582031 c -11.699219 6.363282 -10.78125 30.65625 -4.417969 42.355469 c 6.363282 11.703125 21.007813 16.027344 32.707032 9.664063 c 11.703124 -6.363282 16.027343 -21.007813 9.664062 -32.707032 c -5.167969 -9.507812 -19.269531 -20.515625 -30.652344 -20.894531 z m -0.523437 8.542969 c 2.46875 -0.171875 4.8125 1.113281 5.996093 3.289062 c 1.671876 3.070313 0.535157 6.910156 -2.535156 8.578125 c -3.066406 1.667969 -6.910156 0.535157 -8.578125 -2.535156 s -0.535156 -6.910156 2.535157 -8.578125 c 0.796874 -0.433594 1.675781 -0.691406 2.582031 -0.753906 z m 0 0" fill="url(#b)"/>
                    <path d="m 83.128906 16.363281 c -2.625 -0.085937 -5.105468 0.390625 -7.300781 1.582031 c -11.699219 6.367188 -10.78125 30.65625 -4.417969 42.359376 c 6.363282 11.699218 21.007813 16.027343 32.707032 9.664062 c 11.703124 -6.363281 16.027343 -21.007812 9.664062 -32.710938 c -5.167969 -9.503906 -19.269531 -20.511718 -30.652344 -20.894531 z m -0.523437 8.546875 c 2.46875 -0.175781 4.8125 1.109375 5.996093 3.289063 c 1.671876 3.066406 0.535157 6.910156 -2.535156 8.578125 c -3.066406 1.667968 -6.910156 0.53125 -8.578125 -2.535156 c -1.667969 -3.070313 -0.535156 -6.910157 2.535157 -8.578126 c 0.796874 -0.433593 1.675781 -0.691406 2.582031 -0.753906 z m 0 0" fill="url(#c)"/>
                    <path d="m 94.984375 43.214844 c 1.472656 2.9375 0.285156 6.515625 -2.652344 7.988281 c -2.941406 1.472656 -6.515625 0.285156 -7.992187 -2.652344 c -1.472656 -2.9375 -0.285156 -6.515625 2.652344 -7.988281 c 2.941406 -1.476562 6.515624 -0.289062 7.992187 2.652344 z m 0 0" fill="#ffffff"/>
                    <path d="m 198.587366 82.361714 c 2.509756 -8.497403 10.580579 -14.10602 19.419863 -13.502506 l 0.361112 0.000461 c 9.237338 -0.045982 17.180643 6.540036 18.855438 15.627786" fill="none" stroke="#ffffff" stroke-linecap="round" stroke-linejoin="round" stroke-width="7.54503" transform="matrix(0.432413 -0.216897 0.216897 0.432413 -13.907746 72.638458)"/>
                    <path d="m 82.476562 37.476562 c -2.097656 -0.179687 -3.96875 -1.394531 -4.988281 -3.234374 c -0.109375 -0.238282 -0.203125 -0.480469 -0.28125 -0.730469 c -1.359375 1.777343 -3.148437 3.253906 -5.300781 4.25 c -1.65625 0.761719 -2.375 2.722656 -1.613281 4.378906 c 0.765625 1.65625 2.726562 2.378906 4.378906 1.613281 c 3.164063 -1.460937 5.804687 -3.644531 7.804687 -6.277344 z m 0 0" fill="url(#d)"/>
                    <path d="m 78.65625 35.734375 c -0.460938 -0.4375 -0.855469 -0.9375 -1.167969 -1.492187 c -0.214843 -0.414063 -0.382812 -0.851563 -0.503906 -1.304688 c -1.574219 2.128906 -3.777344 3.816406 -6.433594 4.757812 c -0.796875 0.28125 -1.214843 1.15625 -0.929687 1.953126 c 0.28125 0.796874 1.15625 1.214843 1.953125 0.933593 c 2.824219 -1 5.230469 -2.703125 7.082031 -4.847656 z m 0 0" fill="#9a9996"/>
                    <path d="m 54.925781 18.503906 c -0.570312 0 -1.148437 0.039063 -1.726562 0.121094 c -3.417969 0.492188 -6.457031 2.433594 -8.324219 5.328125 l -24.378906 37.769531 c -2.664063 4.128906 0.308594 9.558594 5.234375 9.558594 h 16.628906 c 0.257813 0 0.496094 0.144531 0.613281 0.375 c 0.121094 0.230469 0.101563 0.507812 -0.050781 0.71875 l -2.1875 3.074219 c -0.816406 1.148437 -0.289063 2.757812 1.046875 3.203125 l 1.855469 0.617187 c 1.09375 0.363281 1.523437 1.675781 0.855469 2.613281 l -2.8125 3.960938 c -0.386719 0.546875 -0.214844 1.308594 0.371093 1.636719 l 5.167969 2.863281 c 0.601562 0.335938 0.808594 1.101562 0.457031 1.691406 l -1.46875 2.472656 c -0.417969 0.707032 -0.640625 1.515626 -0.636719 2.339844 l 0.042969 15.699219 c 0.007813 2.175781 0.914063 4.25 2.507813 5.734375 l 4.097656 3.8125 c 1.25 1.164062 3.230469 1 4.269531 -0.355469 l 7.839844 -10.195312 c 1.578125 -2.050781 2.4375 -4.566407 2.441406 -7.152344 l 0.046875 -29.945313 c 0.003906 -1.75 1.421875 -3.164062 3.171875 -3.164062 h 14.050781 c 4.9375 0 7.917969 -5.441406 5.246094 -9.578125 l -24.367187 -37.75 c -2.207031 -3.417969 -5.988281 -5.4375 -9.992188 -5.449219 z m -0.441406 16.21875 c 3.496094 0 6.324219 2.832032 6.324219 6.328125 c 0 3.492188 -2.828125 6.324219 -6.324219 6.324219 c -3.492187 0 -6.324219 -2.832031 -6.324219 -6.324219 c 0 -3.496093 2.832032 -6.328125 6.324219 -6.328125 z m 0 0" fill="url(#e)"/>
                    <path d="m 54.925781 16.304688 c -0.570312 0 -1.148437 0.039062 -1.726562 0.121093 c -3.417969 0.488281 -6.457031 2.433594 -8.324219 5.328125 l -24.378906 37.769532 c -2.664063 4.128906 0.308594 9.554687 5.234375 9.558593 h 16.628906 c 0.257813 0 0.496094 0.144531 0.613281 0.371094 c 0.121094 0.230469 0.101563 0.507813 -0.050781 0.71875 l -2.1875 3.078125 c -0.816406 1.148438 -0.289063 2.757812 1.046875 3.203125 l 1.855469 0.617187 c 1.09375 0.363282 1.523437 1.675782 0.855469 2.613282 l -2.8125 3.960937 c -0.386719 0.546875 -0.214844 1.308594 0.371093 1.636719 l 5.167969 2.863281 c 0.601562 0.335938 0.808594 1.101563 0.457031 1.691407 l -1.46875 2.472656 c -0.417969 0.707031 -0.640625 1.515625 -0.636719 2.339844 l 0.042969 15.695312 c 0.007813 2.175781 0.914063 4.253906 2.507813 5.734375 l 4.097656 3.816406 c 1.25 1.160157 3.230469 0.996094 4.269531 -0.355469 l 7.839844 -10.195312 c 1.578125 -2.050781 2.4375 -4.566406 2.441406 -7.152344 l 0.046875 -29.945312 c 0.003906 -1.75 1.421875 -3.164063 3.171875 -3.164063 h 14.050781 c 4.9375 0 7.917969 -5.441406 5.246094 -9.578125 l -24.367187 -37.75 c -2.207031 -3.417968 -5.988281 -5.4375 -9.992188 -5.449218 z m -0.441406 16.21875 c 3.496094 0 6.324219 2.832031 6.324219 6.324218 c 0 3.496094 -2.828125 6.328125 -6.324219 6.328125 c -3.492187 0 -6.324219 -2.832031 -6.324219 -6.328125 c 0 -3.492187 2.832032 -6.324218 6.324219 -6.324218 z m 0 0" fill="url(#f)"/>
                    <path d="m 62.480469 135.207031 v -48.296875" fill="none" stroke="#9a9996" stroke-linecap="round" stroke-linejoin="round" stroke-width="2.65" transform="matrix(1 0 0 1 -8 -16)"/>
                    <path d="m 59.746094 69.535156 h 0.8125 c 1.363281 0 2.464844 1.308594 2.464844 2.921875 l -0.003907 36.511719 c 0 1.339844 -0.421875 2.628906 -1.183593 3.617188 l -2.660157 3.460937 c -0.191406 0.246094 -0.488281 0.328125 -0.75 0.210937 c -0.261719 -0.121093 -0.433593 -0.421874 -0.433593 -0.753906 v -43.890625 c 0 -1.148437 0.785156 -2.078125 1.753906 -2.078125 z m 0 0" fill="#9a9996"/>
                    <path d="m 59.746094 71.535156 h 0.8125 c 1.363281 0 2.464844 1.308594 2.464844 2.921875 l -0.003907 34.523438 c 0 1.335937 -0.421875 2.628906 -1.183593 3.613281 l -2.660157 3.453125 c -0.1875 0.246094 -0.488281 0.332031 -0.75 0.210937 c -0.261719 -0.121093 -0.433593 -0.421874 -0.433593 -0.753906 v -41.890625 c 0 -1.148437 0.785156 -2.078125 1.753906 -2.078125 z m 0 0" fill="#c0bfbc"/>
                    <path d="m 54.515625 25.960938 c -0.441406 0 -0.886719 0.027343 -1.332031 0.089843 c -2.640625 0.359375 -4.984375 1.785157 -6.429688 3.910157 l -18.820312 27.726562 c -2.058594 3.03125 0.238281 7.015625 4.042968 7.015625 h 11.023438 l 8.9375 -5.234375 c 2.082031 -1.21875 4.667969 -1.1875 6.714844 0.085938 l 8.28125 5.148437 h 10.058594 c 3.8125 0 6.113281 -3.992187 4.050781 -7.027344 l -18.8125 -27.714843 c -1.703125 -2.511719 -4.625 -3.992188 -7.714844 -4 z m -0.027344 6.5625 c 3.492188 0 6.164063 3.042968 6.167969 5.769531 c -0.003906 4.382812 -2.675781 6.882812 -6.167969 6.882812 c -3.492187 0 -6.324219 -3.011719 -6.324219 -6.113281 c 0 -3.320312 2.832032 -6.539062 6.324219 -6.539062 z m 0 0" fill="url(#g)"/>
                    <path d="m 54.515625 23.960938 c -0.441406 0 -0.886719 0.027343 -1.332031 0.089843 c -2.640625 0.378907 -4.984375 1.878907 -6.429688 4.113281 l -18.820312 29.160157 c -0.742188 1.148437 -0.910156 2.425781 -0.65625 3.589843 c 0.121094 -0.539062 0.328125 -1.078124 0.65625 -1.589843 l 18.820312 -29.160157 c 1.445313 -2.234374 3.789063 -3.734374 6.429688 -4.113281 c 0.445312 -0.0625 0.890625 -0.089843 1.332031 -0.089843 c 3.089844 0.007812 6.011719 1.566406 7.714844 4.203124 l 18.8125 29.144532 c 0.332031 0.515625 0.539062 1.054687 0.65625 1.597656 c 0.253906 -1.167969 0.085937 -2.445312 -0.65625 -3.597656 l -18.8125 -29.144532 c -1.703125 -2.636718 -4.625 -4.195312 -7.714844 -4.203124 z m 0 0" fill="#c0bfbc"/>
                    <path d="m 86.066406 30.0625 c -1.058594 -0.574219 -2.261718 -0.835938 -3.460937 -0.753906 c -0.90625 0.0625 -1.785157 0.320312 -2.582031 0.753906 c -0.460938 0.253906 -0.890626 0.566406 -1.273438 0.925781 c -0.421875 0.890625 -0.9375 1.738281 -1.542969 2.523438 c 0.078125 0.25 0.171875 0.492187 0.28125 0.730469 c 1.019531 1.839843 2.890625 3.054687 4.988281 3.234374 c 1.675782 -2.207031 2.898438 -4.730468 3.589844 -7.414062 z m 0 0" fill="url(#d)"/>
                    <path d="m 54.042969 32.550781 c -2.363281 0.1875 -4.359375 1.828125 -5.300781 3.917969 c 2.050781 3.058594 4.796874 5.996094 9.15625 7.734375 c 2.167968 -0.949219 2.878906 -3.5625 2.882812 -5.988281 c -0.003906 -0.050782 -0.007812 -0.101563 -0.011719 -0.152344 c -2.84375 -1.121094 -5.160156 -3.074219 -6.726562 -5.511719 z m 0 0" fill="url(#d)"/>
                    <path d="m 51.886719 26.328125 c -2.101563 0.589844 -3.929688 1.863281 -5.132813 3.632813 l -0.648437 0.957031 c 0.601562 1.976562 1.492187 3.847656 2.636719 5.550781 c 0.941406 -2.089844 2.9375 -3.730469 5.300781 -3.917969 c -1.1875 -1.851562 -1.933594 -3.976562 -2.15625 -6.222656 z m 0 0" fill="url(#d)"/>
                    <path d="m 65.765625 4.144531 c -0.308594 0.003907 -0.621094 0.011719 -0.929687 0.027344 c -9.925782 0.542969 -18.105469 8.097656 -19.441407 17.945313 c -0.410156 3.03125 -0.136719 6.019531 0.710938 8.800781 l 0.648437 -0.957031 c 1.203125 -1.769532 3.03125 -3.042969 5.132813 -3.632813 c -0.109375 -1.085937 -0.105469 -2.199219 0.046875 -3.324219 c 0.914062 -6.753906 6.457031 -11.867187 13.261718 -12.238281 c 5.15625 -0.28125 9.882813 2.226563 12.589844 6.335937 c 1.675782 -0.566406 3.472656 -0.800781 5.347656 -0.738281 c 0.597657 0.019531 1.210938 0.074219 1.824219 0.152344 c -3.3125 -7.492187 -10.84375 -12.453125 -19.191406 -12.371094 z m 0 0" fill="url(#d)"/>
                    <path d="m 82.089844 29.398438 c -0.722656 0.101562 -1.421875 0.324218 -2.066406 0.664062 c -1.335938 0.742188 -2.355469 1.945312 -2.871094 3.382812 c 0.09375 0.273438 0.207031 0.539063 0.335937 0.796876 c 0.3125 0.554687 0.707031 1.054687 1.167969 1.492187 c 1.585938 -1.835937 2.757812 -4 3.433594 -6.335937 z m 0 0" fill="#9a9996"/>
                    <path d="m 54.65625 32.53125 c -0.054688 0 -0.109375 -0.007812 -0.167969 -0.007812 c -1.0625 0 -2.0625 0.300781 -2.941406 0.808593 c 1.902344 3.203125 4.859375 5.78125 8.5625 7.160157 c 0.070313 0.050781 0.394531 0.078124 0.460937 0.085937 c 0.234376 -0.878906 0.128907 -0.792969 0.128907 -1.785156 c 0 -0.542969 -0.078125 -1.480469 -0.214844 -1.714844 c -2.511719 -1.042969 -4.367187 -2.417969 -5.828125 -4.546875 z m 0 0" fill="#9a9996"/>
                    <path d="m 52.328125 26.210938 c -1.050781 0.242187 -2.039063 0.65625 -2.925781 1.214843 c 0.339844 2.097657 1.074218 4.101563 2.144531 5.90625 c 0.878906 -0.507812 1.878906 -0.808593 2.941406 -0.808593 c 0.058594 0 0.113281 0.007812 0.167969 0.007812 c -1.277344 -1.859375 -2.089844 -4.03125 -2.328125 -6.320312 z m 0 0" fill="#9a9996"/>
                    <path d="m 66.101562 7.984375 c -8.132812 -0.0625 -15.160156 5.738281 -16.636718 13.738281 c -0.355469 1.929688 -0.359375 3.851563 -0.0625 5.703125 c 0.886718 -0.558593 1.875 -0.972656 2.925781 -1.214843 c -0.136719 -1.285157 -0.09375 -2.605469 0.152344 -3.933594 c 1.207031 -6.554688 6.929687 -11.28125 13.597656 -11.226563 c 4.703125 0.035157 8.898437 2.449219 11.347656 6.171875 c 1 -0.371094 2.046875 -0.613281 3.128907 -0.746094 c -2.890626 -5.078124 -8.332032 -8.441406 -14.453126 -8.492187 z m 0 0" fill="#9a9996"/>
                    <path d="m 62.480469 135.207031 v -46.199219" fill="none" stroke="url(#h)" stroke-linecap="round" stroke-linejoin="round" stroke-width="2.65" transform="matrix(1 0 0 1 -8 -16)"/>
                </g>
            </g>
        </g>
    </mask>
    <mask id="l">
        <g filter="url(#a)">
            <rect fill-opacity="0.8" height="184.32" width="184.32" x="-28.16" y="-28.16"/>
        </g>
    </mask>
    <linearGradient id="m" gradientTransform="matrix(0 0.37 -0.98462 0 295.38501 -30.360001)" gradientUnits="userSpaceOnUse" x1="300" x2="428" y1="235" y2="235">
        <stop offset="0" stop-color="#f9f06b"/>
        <stop offset="1" stop-color="#f5c211"/>
    </linearGradient>
    <clipPath id="n">
        <rect height="128" width="128"/>
    </clipPath>
    <clipPath id="o">
        <rect height="128" width="128"/>
    </clipPath>
    <path d="m 83.128906 20.765625 c -2.625 -0.089844 -5.105468 0.386719 -7.300781 1.582031 c -11.699219 6.363282 -10.78125 30.65625 -4.417969 42.355469 c 6.363282 11.703125 21.007813 16.027344 32.707032 9.664063 c 11.703124 -6.363282 16.027343 -21.007813 9.664062 -32.707032 c -5.167969 -9.507812 -19.269531 -20.515625 -30.652344 -20.894531 z m -0.523437 8.542969 c 2.46875 -0.171875 4.8125 1.113281 5.996093 3.289062 c 1.671876 3.070313 0.535157 6.910156 -2.535156 8.578125 c -3.066406 1.667969 -6.910156 0.535157 -8.578125 -2.535156 s -0.535156 -6.910156 2.535157 -8.578125 c 0.796874 -0.433594 1.675781 -0.691406 2.582031 -0.753906 z m 0 0" fill="url(#b)"/>
    <path d="m 83.128906 16.363281 c -2.625 -0.085937 -5.105468 0.390625 -7.300781 1.582031 c -11.699219 6.367188 -10.78125 30.65625 -4.417969 42.359376 c 6.363282 11.699218 21.007813 16.027343 32.707032 9.664062 c 11.703124 -6.363281 16.027343 -21.007812 9.664062 -32.710938 c -5.167969 -9.503906 -19.269531 -20.511718 -30.652344 -20.894531 z m -0.523437 8.546875 c 2.46875 -0.175781 4.8125 1.109375 5.996093 3.289063 c 1.671876 3.066406 0.535157 6.910156 -2.535156 8.578125 c -3.066406 1.667968 -6.910156 0.53125 -8.578125 -2.535156 c -1.667969 -3.070313 -0.535156 -6.910157 2.535157 -8.578126 c 0.796874 -0.433593 1.675781 -0.691406 2.582031 -0.753906 z m 0 0" fill="url(#c)"/>
    <path d="m 94.984375 43.214844 c 1.472656 2.9375 0.285156 6.515625 -2.652344 7.988281 c -2.941406 1.472656 -6.515625 0.285156 -7.992187 -2.652344 c -1.472656 -2.9375 -0.285156 -6.515625 2.652344 -7.988281 c 2.941406 -1.476562 6.515624 -0.289062 7.992187 2.652344 z m 0 0" fill="#ffffff"/>
    <path d="m 198.587366 82.361714 c 2.509756 -8.497403 10.580579 -14.10602 19.419863 -13.502506 l 0.361112 0.000461 c 9.237338 -0.045982 17.180643 6.540036 18.855438 15.627786" fill="none" stroke="#ffffff" stroke-linecap="round" stroke-linejoin="round" stroke-width="7.54503" transform="matrix(0.432413 -0.216897 0.216897 0.432413 -13.907746 72.638458)"/>
    <path d="m 82.476562 37.476562 c -2.097656 -0.179687 -3.96875 -1.394531 -4.988281 -3.234374 c -0.109375 -0.238282 -0.203125 -0.480469 -0.28125 -0.730469 c -1.359375 1.777343 -3.148437 3.253906 -5.300781 4.25 c -1.65625 0.761719 -2.375 2.722656 -1.613281 4.378906 c 0.765625 1.65625 2.726562 2.378906 4.378906 1.613281 c 3.164063 -1.460937 5.804687 -3.644531 7.804687 -6.277344 z m 0 0" fill="url(#d)"/>
    <path d="m 78.65625 35.734375 c -0.460938 -0.4375 -0.855469 -0.9375 -1.167969 -1.492187 c -0.214843 -0.414063 -0.382812 -0.851563 -0.503906 -1.304688 c -1.574219 2.128906 -3.777344 3.816406 -6.433594 4.757812 c -0.796875 0.28125 -1.214843 1.15625 -0.929687 1.953126 c 0.28125 0.796874 1.15625 1.214843 1.953125 0.933593 c 2.824219 -1 5.230469 -2.703125 7.082031 -4.847656 z m 0 0" fill="#9a9996"/>
    <path d="m 54.925781 18.503906 c -0.570312 0 -1.148437 0.039063 -1.726562 0.121094 c -3.417969 0.492188 -6.457031 2.433594 -8.324219 5.328125 l -24.378906 37.769531 c -2.664063 4.128906 0.308594 9.558594 5.234375 9.558594 h 16.628906 c 0.257813 0 0.496094 0.144531 0.613281 0.375 c 0.121094 0.230469 0.101563 0.507812 -0.050781 0.71875 l -2.1875 3.074219 c -0.816406 1.148437 -0.289063 2.757812 1.046875 3.203125 l 1.855469 0.617187 c 1.09375 0.363281 1.523437 1.675781 0.855469 2.613281 l -2.8125 3.960938 c -0.386719 0.546875 -0.214844 1.308594 0.371093 1.636719 l 5.167969 2.863281 c 0.601562 0.335938 0.808594 1.101562 0.457031 1.691406 l -1.46875 2.472656 c -0.417969 0.707032 -0.640625 1.515626 -0.636719 2.339844 l 0.042969 15.699219 c 0.007813 2.175781 0.914063 4.25 2.507813 5.734375 l 4.097656 3.8125 c 1.25 1.164062 3.230469 1 4.269531 -0.355469 l 7.839844 -10.195312 c 1.578125 -2.050781 2.4375 -4.566407 2.441406 -7.152344 l 0.046875 -29.945313 c 0.003906 -1.75 1.421875 -3.164062 3.171875 -3.164062 h 14.050781 c 4.9375 0 7.917969 -5.441406 5.246094 -9.578125 l -24.367187 -37.75 c -2.207031 -3.417969 -5.988281 -5.4375 -9.992188 -5.449219 z m -0.441406 16.21875 c 3.496094 0 6.324219 2.832032 6.324219 6.328125 c 0 3.492188 -2.828125 6.324219 -6.324219 6.324219 c -3.492187 0 -6.324219 -2.832031 -6.324219 -6.324219 c 0 -3.496093 2.832032 -6.328125 6.324219 -6.328125 z m 0 0" fill="url(#e)"/>
    <path d="m 54.925781 16.304688 c -0.570312 0 -1.148437 0.039062 -1.726562 0.121093 c -3.417969 0.488281 -6.457031 2.433594 -8.324219 5.328125 l -24.378906 37.769532 c -2.664063 4.128906 0.308594 9.554687 5.234375 9.558593 h 16.628906 c 0.257813 0 0.496094 0.144531 0.613281 0.371094 c 0.121094 0.230469 0.101563 0.507813 -0.050781 0.71875 l -2.1875 3.078125 c -0.816406 1.148438 -0.289063 2.757812 1.046875 3.203125 l 1.855469 0.617187 c 1.09375 0.363282 1.523437 1.675782 0.855469 2.613282 l -2.8125 3.960937 c -0.386719 0.546875 -0.214844 1.308594 0.371093 1.636719 l 5.167969 2.863281 c 0.601562 0.335938 0.808594 1.101563 0.457031 1.691407 l -1.46875 2.472656 c -0.417969 0.707031 -0.640625 1.515625 -0.636719 2.339844 l 0.042969 15.695312 c 0.007813 2.175781 0.914063 4.253906 2.507813 5.734375 l 4.097656 3.816406 c 1.25 1.160157 3.230469 0.996094 4.269531 -0.355469 l 7.839844 -10.195312 c 1.578125 -2.050781 2.4375 -4.566406 2.441406 -7.152344 l 0.046875 -29.945312 c 0.003906 -1.75 1.421875 -3.164063 3.171875 -3.164063 h 14.050781 c 4.9375 0 7.917969 -5.441406 5.246094 -9.578125 l -24.367187 -37.75 c -2.207031 -3.417968 -5.988281 -5.4375 -9.992188 -5.449218 z m -0.441406 16.21875 c 3.496094 0 6.324219 2.832031 6.324219 6.324218 c 0 3.496094 -2.828125 6.328125 -6.324219 6.328125 c -3.492187 0 -6.324219 -2.832031 -6.324219 -6.328125 c 0 -3.492187 2.832032 -6.324218 6.324219 -6.324218 z m 0 0" fill="url(#f)"/>
    <path d="m 54.480469 119.207031 v -48.296875" fill="none" stroke="#9a9996" stroke-linecap="round" stroke-linejoin="round" stroke-width="2.65"/>
    <path d="m 59.746094 69.535156 h 0.8125 c 1.363281 0 2.464844 1.308594 2.464844 2.921875 l -0.003907 36.511719 c 0 1.339844 -0.421875 2.628906 -1.183593 3.617188 l -2.660157 3.460937 c -0.191406 0.246094 -0.488281 0.328125 -0.75 0.210937 c -0.261719 -0.121093 -0.433593 -0.421874 -0.433593 -0.753906 v -43.890625 c 0 -1.148437 0.785156 -2.078125 1.753906 -2.078125 z m 0 0" fill="#9a9996"/>
    <path d="m 59.746094 71.535156 h 0.8125 c 1.363281 0 2.464844 1.308594 2.464844 2.921875 l -0.003907 34.523438 c 0 1.335937 -0.421875 2.628906 -1.183593 3.613281 l -2.660157 3.453125 c -0.1875 0.246094 -0.488281 0.332031 -0.75 0.210937 c -0.261719 -0.121093 -0.433593 -0.421874 -0.433593 -0.753906 v -41.890625 c 0 -1.148437 0.785156 -2.078125 1.753906 -2.078125 z m 0 0" fill="#c0bfbc"/>
    <path d="m 54.515625 25.960938 c -0.441406 0 -0.886719 0.027343 -1.332031 0.089843 c -2.640625 0.359375 -4.984375 1.785157 -6.429688 3.910157 l -18.820312 27.726562 c -2.058594 3.03125 0.238281 7.015625 4.042968 7.015625 h 11.023438 l 8.9375 -5.234375 c 2.082031 -1.21875 4.667969 -1.1875 6.714844 0.085938 l 8.28125 5.148437 h 10.058594 c 3.8125 0 6.113281 -3.992187 4.050781 -7.027344 l -18.8125 -27.714843 c -1.703125 -2.511719 -4.625 -3.992188 -7.714844 -4 z m -0.027344 6.5625 c 3.492188 0 6.164063 3.042968 6.167969 5.769531 c -0.003906 4.382812 -2.675781 6.882812 -6.167969 6.882812 c -3.492187 0 -6.324219 -3.011719 -6.324219 -6.113281 c 0 -3.320312 2.832032 -6.539062 6.324219 -6.539062 z m 0 0" fill="url(#g)"/>
    <path d="m 54.515625 23.960938 c -0.441406 0 -0.886719 0.027343 -1.332031 0.089843 c -2.640625 0.378907 -4.984375 1.878907 -6.429688 4.113281 l -18.820312 29.160157 c -0.742188 1.148437 -0.910156 2.425781 -0.65625 3.589843 c 0.121094 -0.539062 0.328125 -1.078124 0.65625 -1.589843 l 18.820312 -29.160157 c 1.445313 -2.234374 3.789063 -3.734374 6.429688 -4.113281 c 0.445312 -0.0625 0.890625 -0.089843 1.332031 -0.089843 c 3.089844 0.007812 6.011719 1.566406 7.714844 4.203124 l 18.8125 29.144532 c 0.332031 0.515625 0.539062 1.054687 0.65625 1.597656 c 0.253906 -1.167969 0.085937 -2.445312 -0.65625 -3.597656 l -18.8125 -29.144532 c -1.703125 -2.636718 -4.625 -4.195312 -7.714844 -4.203124 z m 0 0" fill="#c0bfbc"/>
    <g fill="url(#d)">
        <path d="m 86.066406 30.0625 c -1.058594 -0.574219 -2.261718 -0.835938 -3.460937 -0.753906 c -0.90625 0.0625 -1.785157 0.320312 -2.582031 0.753906 c -0.460938 0.253906 -0.890626 0.566406 -1.273438 0.925781 c -0.421875 0.890625 -0.9375 1.738281 -1.542969 2.523438 c 0.078125 0.25 0.171875 0.492187 0.28125 0.730469 c 1.019531 1.839843 2.890625 3.054687 4.988281 3.234374 c 1.675782 -2.207031 2.898438 -4.730468 3.589844 -7.414062 z m 0 0"/>
        <path d="m 54.042969 32.550781 c -2.363281 0.1875 -4.359375 1.828125 -5.300781 3.917969 c 2.050781 3.058594 4.796874 5.996094 9.15625 7.734375 c 2.167968 -0.949219 2.878906 -3.5625 2.882812 -5.988281 c -0.003906 -0.050782 -0.007812 -0.101563 -0.011719 -0.152344 c -2.84375 -1.121094 -5.160156 -3.074219 -6.726562 -5.511719 z m 0 0"/>
        <path d="m 51.886719 26.328125 c -2.101563 0.589844 -3.929688 1.863281 -5.132813 3.632813 l -0.648437 0.957031 c 0.601562 1.976562 1.492187 3.847656 2.636719 5.550781 c 0.941406 -2.089844 2.9375 -3.730469 5.300781 -3.917969 c -1.1875 -1.851562 -1.933594 -3.976562 -2.15625 -6.222656 z m 0 0"/>
        <path d="m 65.765625 4.144531 c -0.308594 0.003907 -0.621094 0.011719 -0.929687 0.027344 c -9.925782 0.542969 -18.105469 8.097656 -19.441407 17.945313 c -0.410156 3.03125 -0.136719 6.019531 0.710938 8.800781 l 0.648437 -0.957031 c 1.203125 -1.769532 3.03125 -3.042969 5.132813 -3.632813 c -0.109375 -1.085937 -0.105469 -2.199219 0.046875 -3.324219 c 0.914062 -6.753906 6.457031 -11.867187 13.261718 -12.238281 c 5.15625 -0.28125 9.882813 2.226563 12.589844 6.335937 c 1.675782 -0.566406 3.472656 -0.800781 5.347656 -0.738281 c 0.597657 0.019531 1.210938 0.074219 1.824219 0.152344 c -3.3125 -7.492187 -10.84375 -12.453125 -19.191406 -12.371094 z m 0 0"/>
    </g>
    <path d="m 82.089844 29.398438 c -0.722656 0.101562 -1.421875 0.324218 -2.066406 0.664062 c -1.335938 0.742188 -2.355469 1.945312 -2.871094 3.382812 c 0.09375 0.273438 0.207031 0.539063 0.335937 0.796876 c 0.3125 0.554687 0.707031 1.054687 1.167969 1.492187 c 1.585938 -1.835937 2.757812 -4 3.433594 -6.335937 z m 0 0" fill="#9a9996"/>
    <path d="m 54.65625 32.53125 c -0.054688 0 -0.109375 -0.007812 -0.167969 -0.007812 c -1.0625 0 -2.0625 0.300781 -2.941406 0.808593 c 1.902344 3.203125 4.859375 5.78125 8.5625 7.160157 c 0.070313 0.050781 0.394531 0.078124 0.460937 0.085937 c 0.234376 -0.878906 0.128907 -0.792969 0.128907 -1.785156 c 0 -0.542969 -0.078125 -1.480469 -0.214844 -1.714844 c -2.511719 -1.042969 -4.367187 -2.417969 -5.828125 -4.546875 z m 0 0" fill="#9a9996"/>
    <path d="m 52.328125 26.210938 c -1.050781 0.242187 -2.039063 0.65625 -2.925781 1.214843 c 0.339844 2.097657 1.074218 4.101563 2.144531 5.90625 c 0.878906 -0.507812 1.878906 -0.808593 2.941406 -0.808593 c 0.058594 0 0.113281 0.007812 0.167969 0.007812 c -1.277344 -1.859375 -2.089844 -4.03125 -2.328125 -6.320312 z m 0 0" fill="#9a9996"/>
    <path d="m 66.101562 7.984375 c -8.132812 -0.0625 -15.160156 5.738281 -16.636718 13.738281 c -0.355469 1.929688 -0.359375 3.851563 -0.0625 5.703125 c 0.886718 -0.558593 1.875 -0.972656 2.925781 -1.214843 c -0.136719 -1.285157 -0.09375 -2.605469 0.152344 -3.933594 c 1.207031 -6.554688 6.929687 -11.28125 13.597656 -11.226563 c 4.703125 0.035157 8.898437 2.449219 11.347656 6.171875 c 1 -0.371094 2.046875 -0.613281 3.128907 -0.746094 c -2.890626 -5.078124 -8.332032 -8.441406 -14.453126 -8.492187 z m 0 0" fill="#9a9996"/>
    <path d="m 62.480469 135.207031 v -46.199219" fill="none" stroke="url(#h)" stroke-linecap="round" stroke-linejoin="round" stroke-width="2.65" transform="matrix(1 0 0 1 -8 -16)"/>
    <g mask="url(#k)">
        <g clip-path="url(#o)">
            <g mask="url(#l)">
                <g clip-path="url(#n)">
                    <path d="m 128 80.640625 v 47.359375 h -128 v -47.359375 z m 0 0" fill="url(#m)"/>
                    <path d="m 13.308594 80.640625 l 47.355468 47.359375 h 21.214844 l -47.359375 -47.359375 z m 42.421875 0 l 47.363281 47.359375 h 21.214844 l -47.363282 -47.359375 z m 42.429687 0 l 29.839844 29.839844 v -21.210938 l -8.628906 -8.628906 z m -98.160156 7.90625 v 21.214844 l 18.238281 18.238281 h 21.214844 z m 0 0"/>
                </g>
            </g>
        </g>
    </g>
</svg>
